<svg
  xmlns="http://www.w3.org/2000/svg"
  xmlns:xlink="http://www.w3.org/1999/xlink"
  viewBox="0 0 350 330"
>
  <style>
    svg g {
      transform-box: fill-box;
      transform-origin: center;
    }
  </style>
  <defs>
    <g>
      <path
        id="motionPath"
        fill="none"
        stroke="#ffffff"
        stroke-miterlimit="10"
        d="m188 110.6 65.635-57.644-180.99 59.89 159.412 35.67-16.597 70.344"
      />
    </g>
  </defs>
  <g id="clouds">
    <animate
      dur="0.35s"
      attributeName="opacity"
      type="CSS"
      from="1"
      to="0"
      fill="freeze"
      begin="suitcaseMotion.begin + 1.5s"
    />
    <animateTransform
      dur="1s"
      attributeName="transform"
      type="translate"
      to="0, -500"
      fill="freeze"
      begin="suitcaseMotion.begin + 1.5s"
    />
    <g id="cloud1">
      <path
        d="M85.22,67.45H57.86a12.4,12.4,0,1,0-24.8,0H15.13"
        fill="none"
        stroke="#fff"
        stroke-linecap="round"
        stroke-miterlimit="10"
        stroke-width="2"
      />
      <line
        x1="93.48"
        y1="67.45"
        x2="115.68"
        y2="67.45"
        fill="none"
        stroke="#fff"
        stroke-linecap="round"
        stroke-miterlimit="10"
        stroke-width="2"
      />
    </g>
    <g id="cloud2">
      <path
        d="M235.77,119H216.32a35.49,35.49,0,0,0-68-13.69A26.34,26.34,0,0,0,135.43,102a26.72,26.72,0,0,0-24.8,17H95.48a10.49,10.49,0,0,0,0,21h140.3a10.49,10.49,0,0,0,0-21"
        fill="#fff"
      />
    </g>
    <g id="cloud3">
      <line
        x1="272.13"
        y1="145.27"
        x2="311.9"
        y2="145.27"
        fill="none"
        stroke="#fff"
        stroke-linecap="round"
        stroke-miterlimit="10"
        stroke-width="2"
      />
      <line
        x1="300.17"
        y1="135"
        x2="322.37"
        y2="135"
        fill="none"
        stroke="#fff"
        stroke-linecap="round"
        stroke-miterlimit="10"
        stroke-width="2"
      />
      <line
        x1="65.43"
        y1="77.72"
        x2="105.21"
        y2="77.72"
        fill="none"
        stroke="#fff"
        stroke-linecap="round"
        stroke-miterlimit="10"
        stroke-width="2"
      />
    </g>
  </g>
  <g id="suitcase">
    <set
      attributeName="opacity"
      attributeType="CSS"
      to="0"
      end="suitcaseMotion.begin"
    />
    <animateMotion
      id="suitcaseMotion"
      fill="freeze"
      dur="2s"
      begin="0.5s">
      <mpath href="#motionPath" />
    </animateMotion>
    <animateTransform
      dur="2s"
      attributeName="transform"
      type="translate"
      values="-190 -120"
      fill="freeze"
      begin="suitcaseMotion.begin"
    />
    <animateTransform
      dur="2s"
      attributeName="transform"
      type="rotate"
      values="45; -30; 30; 0"
      keyTimes="0; 0.4; 0.8; 1"
      additive="sum"
      fill="freeze"
      begin="suitcaseMotion.begin"
    />
    <animateTransform
      dur="2s"
      attributeName="transform"
      type="scale"
      values="0; 1; 1.5; 3.5; 5"
      keyTimes="0; 0.1; 0.4; 0.8; 1"
      additive="sum"
      fill="freeze"
      begin="suitcaseMotion.begin"
    />

    <path
      fill="#A67EE5"
      d="M195.343 132.904a.708.708 0 0 0 .706-.706v-1.014a.706.706 0 0 0-1.412-.001v1.015a.71.71 0 0 0 .706.706"
    />
    <path
      fill="none"
      stroke="#FFF"
      stroke-width=".4"
      stroke-miterlimit="10"
      d="M195.343 132.904a.708.708 0 0 0 .706-.706v-1.014a.706.706 0 0 0-1.412-.001v1.015a.71.71 0 0 0 .706.706z"
    />
    <path
      fill="#A67EE5"
      d="M180.235 132.904a.708.708 0 0 0 .706-.706v-1.014a.706.706 0 0 0-1.412-.001v1.015c.001.39.316.705.706.706"
    />
    <path
      fill="none"
      stroke="#FFF"
      stroke-width=".4"
      stroke-miterlimit="10"
      d="M180.235 132.904a.708.708 0 0 0 .706-.706v-1.014a.706.706 0 0 0-1.412-.001v1.015c.001.39.316.705.706.706z"
    />
    <path
      fill="#A67EE5"
      d="M179.149 131.186h14.9a2.276 2.276 0 0 0 2.27-2.27V115.7a2.276 2.276 0 0 0-2.27-2.27h-14.9a2.276 2.276 0 0 0-2.27 2.27v13.216a2.276 2.276 0 0 0 2.27 2.27"
    />
    <path
      fill="none"
      stroke="#FFF"
      stroke-width=".4"
      stroke-miterlimit="10"
      d="M179.149 113.43h14.9a2.27 2.27 0 0 1 2.27 2.27v13.216a2.27 2.27 0 0 1-2.27 2.27h-14.9a2.27 2.27 0 0 1-2.27-2.27V115.7a2.27 2.27 0 0 1 2.27-2.27z"
    />
    <path
      fill="#A67EE5"
      d="M184.817 110.958h6.48c.45 0 .815.366.816.816v3.2a.238.238 0 0 1-.238.238h-.54a.238.238 0 0 1-.238-.238V112.1a.254.254 0 0 0-.254-.254h-5.572a.254.254 0 0 0-.254.254v2.876a.238.238 0 0 1-.238.238h-.54a.238.238 0 0 1-.238-.238v-3.2a.82.82 0 0 1 .818-.816"
    />
    <path
      fill="none"
      stroke="#FFF"
      stroke-width=".4"
      stroke-miterlimit="10"
      d="M184.817 110.958h6.48c.45 0 .815.366.816.816v3.2a.238.238 0 0 1-.238.238h-.54a.238.238 0 0 1-.238-.238V112.1a.254.254 0 0 0-.254-.254h-5.572a.254.254 0 0 0-.254.254v2.876a.238.238 0 0 1-.238.238h-.54a.238.238 0 0 1-.238-.238v-3.2a.82.82 0 0 1 .816-.818z"
    />
    <path
      fill="#A67EE5"
      d="M182.033 131.186h14.9a2.276 2.276 0 0 0 2.27-2.27V115.7a2.276 2.276 0 0 0-2.27-2.27h-14.9a2.276 2.276 0 0 0-2.268 2.27v13.216a2.278 2.278 0 0 0 2.27 2.27"
    />
    <path
      fill="none"
      stroke="#FFF"
      stroke-width=".4"
      stroke-miterlimit="10"
      d="M182.033 131.186h14.9a2.276 2.276 0 0 0 2.27-2.27V115.7a2.276 2.276 0 0 0-2.27-2.27h-14.9a2.276 2.276 0 0 0-2.268 2.27v13.216a2.278 2.278 0 0 0 2.268 2.27z"
    />
    <path
      fill="none"
      stroke="#FFF"
      stroke-width=".4"
      stroke-linecap="round"
      stroke-miterlimit="10"
      d="M195.809 117.614h-12.65M195.809 122.308h-12.65M195.809 127.004h-12.65"
    />
    <path
      fill="#A67EE5"
      d="M178.589 117.864h.134v8.892h-.134a.706.706 0 0 1-.704-.702v-7.486c0-.389.315-.704.704-.704"
    />
    <path
      fill="none"
      stroke="#FFF"
      stroke-width=".4"
      stroke-miterlimit="10"
      d="M178.589 117.864h.134v8.892h-.134a.706.706 0 0 1-.704-.702v-7.486c0-.389.315-.704.704-.704z"
    />
    <path
      fill="none"
      stroke="#FFF"
      stroke-width=".4"
      stroke-linecap="round"
      stroke-linejoin="round"
      d="m188.057 110.9-11.118-15.966M188.057 110.9l-3.706-15.966M191.763 94.934l-3.706 15.966M199.173 94.934 188.057 110.9"
    />
    <g>
      <path
        fill="#FFF"
        d="M188.057 83.816c6.134.004 11.106 4.977 11.108 11.112 0-1.352-1.66-2.45-3.706-2.45s-3.662 1.07-3.704 2.4v.052c0-1.352-1.66-2.45-3.706-2.45-2.046 0-3.708 1.098-3.708 2.45v-.052c-.044-1.328-1.684-2.4-3.704-2.4-2.02 0-3.704 1.098-3.704 2.45-.001-6.14 4.975-11.117 11.114-11.118h.004m0-.332c-6.318.01-11.435 5.132-11.442 11.45a.332.332 0 1 0 .664 0c0-1.168 1.514-2.118 3.374-2.118 1.822 0 3.336.932 3.372 2.076v.042a.332.332 0 0 0 .664 0c0-1.168 1.514-2.118 3.374-2.118s3.374.95 3.374 2.118a.332.332 0 0 0 .664 0v-.042c.036-1.146 1.548-2.078 3.372-2.078 1.86 0 3.374.95 3.374 2.118a.332.332 0 1 0 .664 0c-.006-6.32-5.126-11.442-11.446-11.45"
      />
      <path
        fill="#E81A5A"
        d="M188.057 83.816c1.984 0 3.6 4.18 3.708 11.066.042-1.33 1.682-2.4 3.704-2.4 2.022 0 3.696 1.1 3.696 2.446 0-6.14-4.978-11.118-11.118-11.118"
      />
      <path
        fill="#FE6183"
        d="M188.055 83.816c-6.138 0-11.114 4.974-11.116 11.112 0-1.352 1.66-2.45 3.704-2.45 2.044 0 3.66 1.07 3.704 2.4.104-6.886 1.722-11.064 3.706-11.064"
      />
      <path
        fill="#F7396B"
        d="M188.057 83.816c-1.986 0-3.6 4.18-3.708 11.064v.052c0-1.352 1.66-2.45 3.706-2.45 2.046 0 3.71 1.1 3.71 2.446v-.052c-.102-6.886-1.72-11.066-3.704-11.066"
      />
    </g>
  </g>
  <g id="flower1" style="transform-origin: bottom left">
    <animateTransform
      dur="2s"
      attributeName="transform"
      type="rotate"
      values="0; 2; 0"
      fill="freeze"
      begin="suitcaseMotion.begin"
      repeatCount="indefinite"
      keySplines="0 0 0.58 1; 0 0 0.58 1"
      calcMode="spline"
    />
    <path
      d="M263.47,206.82a2,2,0,0,1,3.15,2c-1,7-2.07,20.33,4.85,19.4,4.94-.66-16.65-31.53,19.32-38.16a2,2,0,0,1,2.18,2.89c-1.32,2.74-2.83,6.61-2.73,9.9a2,2,0,0,0,3.71,1c4.1-6.15,15.1-17.86,36.59-10.7a2,2,0,0,1,1.35,1.54c0.93,4.8,4.13,23.24-.29,28.72-5.09,6.31-15,4.14-16.18,10.25-1.3,6.91,7.51,4.82,13.42-.22a2,2,0,0,1,3.32,1.64c-0.25,5.45-2.18,14-11.12,18.69-13.78,7.21-23.48-7-25.19-3.88-2.59,4.66,7.94,8.47,13.78,10.18a2,2,0,0,1,.61,3.59c-10.52,7.74-29.13,10.28-37-5.41-8.3-16.59-12.93-12.49-18.19-20.38-5.71-8.57-4.33-22.54,8.38-31.05m29.4,32.47c0.5,2.73,5.2,3.51,8.35,2.94s8.47-3.83,8-6.56-6.62-3.9-9.78-3.33-7.05,4.22-6.55,6.95"
      fill="#e81a5a"
    />
    <path
      d="M263,327.88s-4.91-70.27,5.54-80.72"
      fill="none"
      stroke="#e81a5a"
      stroke-miterlimit="10"
      stroke-width="2"
    />
  </g>
  <g id="flower2" style="transform-origin: bottom left">
    <animateTransform
      dur="2s"
      attributeName="transform"
      type="rotate"
      values="0; 5; 0"
      fill="freeze"
      begin="suitcaseMotion.begin"
      repeatCount="indefinite"
      keySplines="0 0 0.58 1; 0 0 0.58 1"
      calcMode="spline"
    />
    <path
      d="M322.92,283.4a2.14,2.14,0,0,1,.55,2.17c-1.06,3.43-4.58,12.85-12.1,16.34-5.13,2.38-8.33-2.7-10.92.77s2.1,5,6.92,4.31a2.16,2.16,0,0,1,2.14,3.34A14.34,14.34,0,0,1,297.78,317c-10.84.27-12.55-11.58-14.57-10.19-2.72,1.89,1.27,6.55,4.39,9.57a2.16,2.16,0,0,1-1.3,3.71c-8.76.84-19.72-3.51-19.8-15-0.08-12.94-4.25-11.8-5.11-18.35-0.91-6.88,3.88-14.88,13.74-16.69a2.16,2.16,0,0,1,2.31,3.11c-2.41,4.73-6,12.6-2.82,12.56,3.46,0-1.58-22.58,28.43-15.26a2.16,2.16,0,0,1,1.09,3.54l-0.1.11a2.16,2.16,0,0,0,2.41,3.45c3.66-1.52,9.16-1.27,16.47,5.84"
      fill="#fe6183"
    />
    <path
      d="M245.13,327.88s3.48-30.11,21.7-30.11"
      fill="none"
      stroke="#fe6183"
      stroke-miterlimit="10"
      stroke-width="2"
    />
  </g>
  <g id="ground">
    <line
      x1="41.13"
      y1="329"
      x2="319.13"
      y2="329"
      fill="none"
      stroke="#fff"
      stroke-width="2"
    />
  </g>
</svg>
